<svg xmlns="http://www.w3.org/2000/svg" xmlns:xlink="http://www.w3.org/1999/xlink" width="12" height="20" viewBox="0 0 12 20"><defs><path id="erzva" d="M76.83 451.74a.65.65 0 0 0-.2-.47l-1-1a.69.69 0 0 0-.46-.2.69.69 0 0 0-.46.2l-9.34 9.34a.7.7 0 0 0-.2.46c0 .16.08.34.2.47l9.34 9.33c.12.12.3.2.46.2a.7.7 0 0 0 .46-.2l1-1a.7.7 0 0 0 .2-.46.69.69 0 0 0-.2-.46l-7.88-7.88 7.88-7.87a.7.7 0 0 0 .2-.46z"/></defs><g><g opacity=".25" transform="translate(-65 -450)"><use fill="#303030" xlink:href="#erzva"/></g></g></svg>